<svg width="616.258203125px" height="122px" xmlns="http://www.w3.org/2000/svg" viewBox="-58.12910156250001 14 616.258203125 122" style="background: rgba(0, 0, 0, 0);" preserveAspectRatio="xMidYMid"><defs><filter id="editing-extrude-glow"><feFlood flood-color="#ae5858" result="flood-1"></feFlood><feMorphology operator="erode" radius="1" in="SourceAlpha" result="erode"></feMorphology><feComposite operator="in" in="flood-1" in2="erode" result="comp1"></feComposite><feConvolveMatrix order="3,3" divisor="1" in="comp1" result="convolve" kernelMatrix="0 0 0 1 1 1 0 0 0"></feConvolveMatrix><feOffset dx="-3" dy="0" in="convolve" result="extrude"></feOffset><feComposite operator="in" in="flood-1" in2="extrude" result="comp-extrude"></feComposite><feFlood flood-color="#ffffff" result="flood-2"></feFlood><feComposite operator="in" in="flood-2" in2="SourceAlpha" result="comp2"></feComposite><feMorphology operator="dilate" radius="1" in="comp2" result="dilate"></feMorphology><feOffset dx="-4.5" dy="0" in="dilate" result="offset"></feOffset><feGaussianBlur in="offset" stdDeviation="5.8" result="blur"></feGaussianBlur><feComponentTransfer in="blur" result="shadow"><feFuncA type="linear" slope="0.8" intercept="-0.2"></feFuncA></feComponentTransfer><feMerge><feMergeNode in="shadow"></feMergeNode><feMergeNode in="comp-extrude"></feMergeNode><feMergeNode in="SourceGraphic"></feMergeNode></feMerge></filter></defs><g filter="url(#editing-extrude-glow)"><g transform="translate(31.493790924549103, 97.4000015258789)"><path d="M7.68 0L0.64 0L8.32-42.24L22.08-42.24L32.06-13.18L37.38-42.24L44.48-42.18L36.67 0L22.02 0L12.80-27.97L7.68 0ZM48.86-1.92L48.86-1.92L48.86-1.92Q47.36-3.58 46.69-6.21L46.69-6.21L46.69-6.21Q46.02-8.83 46.02-13.12L46.02-13.12L46.02-13.12Q46.02-17.41 47.49-21.31L47.49-21.31L47.49-21.31Q48.96-25.22 51.65-28.03L51.65-28.03L51.65-28.03Q57.15-33.92 66.24-33.92L66.24-33.92L66.24-33.92Q69.50-33.92 71.87-32.83L71.87-32.83L82.82-33.92L78.08-8.96L78.08-8.96Q77.89-8.19 77.89-6.78L77.89-6.78L77.89-6.78Q77.89-5.38 78.75-4.48L78.75-4.48L78.75-4.48Q79.62-3.58 80.90-3.46L80.90-3.46L80.90-3.46Q80.26-1.28 77.92 0L77.92 0L77.92 0Q75.58 1.28 72.96 1.28L72.96 1.28L72.96 1.28Q70.34 1.28 68.58 0.29L68.58 0.29L68.58 0.29Q66.82-0.70 66.30-2.37L66.30-2.37L66.30-2.37Q65.28-0.77 63.10 0.26L63.10 0.26L63.10 0.26Q60.93 1.28 58.02 1.28L58.02 1.28L58.02 1.28Q55.10 1.28 52.74 0.51L52.74 0.51L52.74 0.51Q50.37-0.26 48.86-1.92ZM62.37-27.90L62.37-27.90L62.37-27.90Q61.63-26.75 60.99-24.80L60.99-24.80L60.99-24.80Q60.35-22.85 59.30-17.63L59.30-17.63L59.30-17.63Q58.24-12.42 58.24-8.70L58.24-8.70L58.24-8.70Q58.24-4.99 58.82-3.90L58.82-3.90L58.82-3.90Q59.39-2.82 60.42-2.82L60.42-2.82L60.42-2.82Q62.46-2.82 63.97-4.77L63.97-4.77L63.97-4.77Q65.47-6.72 66.05-10.18L66.05-10.18L69.44-28.93L69.44-28.93Q68.10-30.08 66.53-30.08L66.53-30.08L66.53-30.08Q64.96-30.08 64.03-29.57L64.03-29.57L64.03-29.57Q63.10-29.06 62.37-27.90ZM132.35 1.28L132.35 1.28L132.35 1.28Q124.61 1.28 124.61-4.74L124.61-4.74L124.61-4.74Q124.61-7.36 125.73-12.45L125.73-12.45L125.73-12.45Q126.85-17.54 127.23-19.58L127.23-19.58L127.23-19.58Q128.13-24.26 128.13-25.73L128.13-25.73L128.13-25.73Q128.13-28.99 125.70-28.99L125.70-28.99L125.70-28.99Q124.10-28.99 122.56-26.78L122.56-26.78L122.56-26.78Q121.02-24.58 120.32-20.16L120.32-20.16L116.35 0L103.87 1.28L107.33-16.13L107.33-16.13Q107.90-19.01 108.42-22.27L108.42-22.27L108.42-22.27Q108.93-25.54 108.93-26.05L108.93-26.05L108.93-26.05Q108.93-28.99 106.75-28.99L106.75-28.99L106.75-28.99Q105.28-28.99 103.68-26.82L103.68-26.82L103.68-26.82Q102.08-24.64 101.18-20.16L101.18-20.16L97.28 0L84.67 1.28L91.39-32.64L101.82-33.92L100.74-27.46L100.74-27.46Q102.40-30.91 105.47-32.42L105.47-32.42L105.47-32.42Q108.54-33.92 113.34-33.92L113.34-33.92L113.34-33.92Q116.10-33.92 117.89-32.58L117.89-32.58L117.89-32.58Q119.68-31.23 120.26-29.06L120.26-29.06L120.26-29.06Q121.34-31.30 124.13-32.61L124.13-32.61L124.13-32.61Q126.91-33.92 130.34-33.92L130.34-33.92L130.34-33.92Q133.76-33.92 135.46-33.18L135.46-33.18L135.46-33.18Q137.15-32.45 138.18-31.23L138.18-31.23L138.18-31.23Q139.90-28.99 139.90-24.90L139.90-24.90L139.90-24.90Q139.90-20.86 138.18-12.48L138.18-12.48L138.18-12.48Q137.28-8.38 137.28-6.88L137.28-6.88L137.28-6.88Q137.28-5.38 138.14-4.48L138.14-4.48L138.14-4.48Q139.01-3.58 140.29-3.46L140.29-3.46L140.29-3.46Q139.65-1.28 137.44 0L137.44 0L137.44 0Q135.23 1.28 132.35 1.28ZM171.14-10.82L171.14-10.82L171.14-10.82Q172.74-9.73 172.74-7.33L172.74-7.33L172.74-7.33Q172.74-4.93 171.52-3.39L171.52-3.39L171.52-3.39Q170.30-1.86 168.32-0.83L168.32-0.83L168.32-0.83Q164.22 1.28 159.81 1.28L159.81 1.28L159.81 1.28Q155.39 1.28 152.80 0.32L152.80 0.32L152.80 0.32Q150.21-0.64 148.48-2.43L148.48-2.43L148.48-2.43Q145.09-5.82 145.09-12.03L145.09-12.03L145.09-12.03Q145.09-21.70 150.34-27.58L150.34-27.58L150.34-27.58Q155.97-33.92 165.76-33.92L165.76-33.92L165.76-33.92Q171.84-33.92 174.85-31.36L174.85-31.36L174.85-31.36Q177.09-29.44 177.09-26.30L177.09-26.30L177.09-26.30Q177.09-15.04 157.63-15.04L157.63-15.04L157.63-15.04Q157.38-13.38 157.38-11.97L157.38-11.97L157.38-11.97Q157.38-9.02 158.69-7.90L158.69-7.90L158.69-7.90Q160-6.78 162.43-6.78L162.43-6.78L162.43-6.78Q164.86-6.78 167.46-7.90L167.46-7.90L167.46-7.90Q170.05-9.02 171.14-10.82ZM158.08-17.79L158.08-17.79L158.08-17.79Q162.62-17.79 165.25-20.61L165.25-20.61L165.25-20.61Q167.87-23.30 167.87-27.58L167.87-27.58L167.87-27.58Q167.87-29.06 167.33-29.86L167.33-29.86L167.33-29.86Q166.78-30.66 165.70-30.66L165.70-30.66L165.70-30.66Q164.61-30.66 163.68-30.24L163.68-30.24L163.68-30.24Q162.75-29.82 161.79-28.42L161.79-28.42L161.79-28.42Q159.42-25.22 158.08-17.79ZM218.37-20.61L231.30-21.76L231.30-21.76Q226.69-11.65 226.69 0.06L226.69 0.06L226.69 0.06Q224.96 1.28 222.43 1.28L222.43 1.28L222.43 1.28Q219.90 1.28 218.30 0.10L218.30 0.10L218.30 0.10Q216.70-1.09 216.38-2.30L216.38-2.30L216.38-2.30Q214.78-0.64 212.19 0.32L212.19 0.32L212.19 0.32Q209.60 1.28 206.85 1.28L206.85 1.28L206.85 1.28Q204.10 1.28 201.70 0.38L201.70 0.38L201.70 0.38Q199.30-0.51 197.44-2.50L197.44-2.50L197.44-2.50Q193.34-6.85 193.34-15.10L193.34-15.10L193.34-15.10Q193.34-27.90 200.19-35.58L200.19-35.58L200.19-35.58Q207.23-43.52 219.71-43.52L219.71-43.52L219.71-43.52Q228.35-43.52 231.42-39.04L231.42-39.04L231.42-39.04Q232.38-37.63 232.38-35.94L232.38-35.94L232.38-35.94Q232.38-34.24 231.65-32.80L231.65-32.80L231.65-32.80Q230.91-31.36 229.76-30.21L229.76-30.21L229.76-30.21Q227.01-27.65 223.62-27.65L223.62-27.65L223.62-27.65Q222.27-27.65 220.99-28.10L220.99-28.10L220.99-28.10Q221.25-30.02 221.25-32.26L221.25-32.26L221.25-32.26Q221.25-34.50 221.09-35.52L221.09-35.52L221.09-35.52Q220.93-36.54 220.54-37.38L220.54-37.38L220.54-37.38Q219.71-39.10 217.89-39.10L217.89-39.10L217.89-39.10Q216.06-39.10 214.05-37.15L214.05-37.15L214.05-37.15Q212.03-35.20 210.43-32L210.43-32L210.43-32Q206.91-24.83 206.91-16.19L206.91-16.19L206.91-16.19Q206.91-12.22 208.45-9.41L208.45-9.41L208.45-9.41Q210.11-6.34 213.06-6.34L213.06-6.34L213.06-6.34Q214.08-6.34 215.01-6.85L215.01-6.85L215.01-6.85Q215.94-7.36 216.32-7.74L216.32-7.74L218.37-20.61ZM254.98-2.69L254.98-2.69L254.98-2.69Q251.90 1.28 244.29 1.28L244.29 1.28L244.29 1.28Q240.32 1.28 237.44-1.12L237.44-1.12L237.44-1.12Q234.56-3.52 234.56-6.98L234.56-6.98L234.56-6.98Q234.56-8.90 234.75-9.86L234.75-9.86L239.04-32.64L252.03-33.92L247.36-9.22L247.36-9.22Q247.10-7.81 247.10-6.98L247.10-6.98L247.10-6.98Q247.10-3.26 249.34-3.26L249.34-3.26L249.34-3.26Q251.84-3.26 253.63-6.66L253.63-6.66L253.63-6.66Q254.21-7.74 254.46-9.15L254.46-9.15L259.01-32.64L271.62-33.92L266.88-8.96L266.88-8.96Q266.69-8 266.69-6.98L266.69-6.98L266.69-6.98Q266.69-5.95 267.26-4.83L267.26-4.83L267.26-4.83Q267.84-3.71 269.70-3.46L269.70-3.46L269.70-3.46Q269.31-1.92 267.97-0.90L267.97-0.90L267.97-0.90Q265.15 1.28 262.11 1.28L262.11 1.28L262.11 1.28Q259.07 1.28 257.28 0.19L257.28 0.19L257.28 0.19Q255.49-0.90 254.98-2.69ZM300.74-10.82L300.74-10.82L300.74-10.82Q302.34-9.73 302.34-7.33L302.34-7.33L302.34-7.33Q302.34-4.93 301.12-3.39L301.12-3.39L301.12-3.39Q299.90-1.86 297.92-0.83L297.92-0.83L297.92-0.83Q293.82 1.28 289.41 1.28L289.41 1.28L289.41 1.28Q284.99 1.28 282.40 0.32L282.40 0.32L282.40 0.32Q279.81-0.64 278.08-2.43L278.08-2.43L278.08-2.43Q274.69-5.82 274.69-12.03L274.69-12.03L274.69-12.03Q274.69-21.70 279.94-27.58L279.94-27.58L279.94-27.58Q285.57-33.92 295.36-33.92L295.36-33.92L295.36-33.92Q301.44-33.92 304.45-31.36L304.45-31.36L304.45-31.36Q306.69-29.44 306.69-26.30L306.69-26.30L306.69-26.30Q306.69-15.04 287.23-15.04L287.23-15.04L287.23-15.04Q286.98-13.38 286.98-11.97L286.98-11.97L286.98-11.97Q286.98-9.02 288.29-7.90L288.29-7.90L288.29-7.90Q289.60-6.78 292.03-6.78L292.03-6.78L292.03-6.78Q294.46-6.78 297.06-7.90L297.06-7.90L297.06-7.90Q299.65-9.02 300.74-10.82ZM287.68-17.79L287.68-17.79L287.68-17.79Q292.22-17.79 294.85-20.61L294.85-20.61L294.85-20.61Q297.47-23.30 297.47-27.58L297.47-27.58L297.47-27.58Q297.47-29.06 296.93-29.86L296.93-29.86L296.93-29.86Q296.38-30.66 295.30-30.66L295.30-30.66L295.30-30.66Q294.21-30.66 293.28-30.24L293.28-30.24L293.28-30.24Q292.35-29.82 291.39-28.42L291.39-28.42L291.39-28.42Q289.02-25.22 287.68-17.79ZM328-22.46L328-22.46L328-22.46Q328.90-24.83 328.90-26.88L328.90-26.88L328.90-26.88Q328.90-30.66 325.82-30.66L325.82-30.66L325.82-30.66Q324.22-30.66 322.91-29.22L322.91-29.22L322.91-29.22Q321.60-27.78 321.60-25.98L321.60-25.98L321.60-25.98Q321.60-24.70 322.62-23.68L322.62-23.68L322.62-23.68Q324.10-22.27 327.87-19.97L327.87-19.97L327.87-19.97Q331.65-17.66 333.09-15.78L333.09-15.78L333.09-15.78Q334.53-13.89 334.53-11.30L334.53-11.30L334.53-11.30Q334.53-8.70 333.28-6.34L333.28-6.34L333.28-6.34Q332.03-3.97 329.79-2.30L329.79-2.30L329.79-2.30Q324.99 1.28 317.31 1.28L317.31 1.28L317.31 1.28Q313.15 1.28 309.95-0.90L309.95-0.90L309.95-0.90Q306.75-3.01 306.75-5.50L306.75-5.50L306.75-5.50Q306.75-8 308.58-9.47L308.58-9.47L308.58-9.47Q310.40-10.94 313.09-10.94L313.09-10.94L313.09-10.94Q315.78-10.94 317.44-9.92L317.44-9.92L317.44-9.92Q316.61-7.81 316.61-6.40L316.61-6.40L316.61-6.40Q316.61-2.18 320.19-2.18L320.19-2.18L320.19-2.18Q321.73-2.18 322.75-3.14L322.75-3.14L322.75-3.14Q323.78-4.10 323.78-5.76L323.78-5.76L323.78-5.76Q323.78-9.02 318.27-12.48L318.27-12.48L318.27-12.48Q313.79-15.42 312.77-16.58L312.77-16.58L312.77-16.58Q311.04-18.62 311.04-21.18L311.04-21.18L311.04-21.18Q311.04-23.74 312.26-26.18L312.26-26.18L312.26-26.18Q313.47-28.61 315.71-30.34L315.71-30.34L315.71-30.34Q320.38-33.92 328.51-33.92L328.51-33.92L328.51-33.92Q332.67-33.92 335.14-32.26L335.14-32.26L335.14-32.26Q337.60-30.59 337.60-27.78L337.60-27.78L337.60-27.78Q337.60-24.96 335.90-23.36L335.90-23.36L335.90-23.36Q334.21-21.76 331.14-21.76L331.14-21.76L331.14-21.76Q329.02-21.76 328-22.46ZM359.10-22.46L359.10-22.46L359.10-22.46Q360-24.83 360-26.88L360-26.88L360-26.88Q360-30.66 356.93-30.66L356.93-30.66L356.93-30.66Q355.33-30.66 354.02-29.22L354.02-29.22L354.02-29.22Q352.70-27.78 352.70-25.98L352.70-25.98L352.70-25.98Q352.70-24.70 353.73-23.68L353.73-23.68L353.73-23.68Q355.20-22.27 358.98-19.97L358.98-19.97L358.98-19.97Q362.75-17.66 364.19-15.78L364.19-15.78L364.19-15.78Q365.63-13.89 365.63-11.30L365.63-11.30L365.63-11.30Q365.63-8.70 364.38-6.34L364.38-6.34L364.38-6.34Q363.14-3.97 360.90-2.30L360.90-2.30L360.90-2.30Q356.10 1.28 348.42 1.28L348.42 1.28L348.42 1.28Q344.26 1.28 341.06-0.90L341.06-0.90L341.06-0.90Q337.86-3.01 337.86-5.50L337.86-5.50L337.86-5.50Q337.86-8 339.68-9.47L339.68-9.47L339.68-9.47Q341.50-10.94 344.19-10.94L344.19-10.94L344.19-10.94Q346.88-10.94 348.54-9.92L348.54-9.92L348.54-9.92Q347.71-7.81 347.71-6.40L347.71-6.40L347.71-6.40Q347.71-2.18 351.30-2.18L351.30-2.18L351.30-2.18Q352.83-2.18 353.86-3.14L353.86-3.14L353.86-3.14Q354.88-4.10 354.88-5.76L354.88-5.76L354.88-5.76Q354.88-9.02 349.38-12.48L349.38-12.48L349.38-12.48Q344.90-15.42 343.87-16.58L343.87-16.58L343.87-16.58Q342.14-18.62 342.14-21.18L342.14-21.18L342.14-21.18Q342.14-23.74 343.36-26.18L343.36-26.18L343.36-26.18Q344.58-28.61 346.82-30.34L346.82-30.34L346.82-30.34Q351.49-33.92 359.62-33.92L359.62-33.92L359.62-33.92Q363.78-33.92 366.24-32.26L366.24-32.26L366.24-32.26Q368.70-30.59 368.70-27.78L368.70-27.78L368.70-27.78Q368.70-24.96 367.01-23.36L367.01-23.36L367.01-23.36Q365.31-21.76 362.24-21.76L362.24-21.76L362.24-21.76Q360.13-21.76 359.10-22.46ZM396.99-10.82L396.99-10.82L396.99-10.82Q398.59-9.73 398.59-7.33L398.59-7.33L398.59-7.33Q398.59-4.93 397.38-3.39L397.38-3.39L397.38-3.39Q396.16-1.86 394.18-0.83L394.18-0.83L394.18-0.83Q390.08 1.28 385.66 1.28L385.66 1.28L385.66 1.28Q381.25 1.28 378.66 0.32L378.66 0.32L378.66 0.32Q376.06-0.64 374.34-2.43L374.34-2.43L374.34-2.43Q370.94-5.82 370.94-12.03L370.94-12.03L370.94-12.03Q370.94-21.70 376.19-27.58L376.19-27.58L376.19-27.58Q381.82-33.92 391.62-33.92L391.62-33.92L391.62-33.92Q397.70-33.92 400.70-31.36L400.70-31.36L400.70-31.36Q402.94-29.44 402.94-26.30L402.94-26.30L402.94-26.30Q402.94-15.04 383.49-15.04L383.49-15.04L383.49-15.04Q383.23-13.38 383.23-11.97L383.23-11.97L383.23-11.97Q383.23-9.02 384.54-7.90L384.54-7.90L384.54-7.90Q385.86-6.78 388.29-6.78L388.29-6.78L388.29-6.78Q390.72-6.78 393.31-7.90L393.31-7.90L393.31-7.90Q395.90-9.02 396.99-10.82ZM383.94-17.79L383.94-17.79L383.94-17.79Q388.48-17.79 391.10-20.61L391.10-20.61L391.10-20.61Q393.73-23.30 393.73-27.58L393.73-27.58L393.73-27.58Q393.73-29.06 393.18-29.86L393.18-29.86L393.18-29.86Q392.64-30.66 391.55-30.66L391.55-30.66L391.55-30.66Q390.46-30.66 389.54-30.24L389.54-30.24L389.54-30.24Q388.61-29.82 387.65-28.42L387.65-28.42L387.65-28.42Q385.28-25.22 383.94-17.79ZM425.15-17.98L425.15-17.98L425.15-17.98Q427.46-22.08 427.46-26.24L427.46-26.24L427.46-26.24Q427.46-28.99 425.47-28.99L425.47-28.99L425.47-28.99Q423.94-28.99 422.34-26.37L422.34-26.37L422.34-26.37Q420.67-23.74 420.16-20.35L420.16-20.35L416.83 0L403.58 1.28L410.11-32.64L420.67-33.92L419.52-27.46L419.52-27.46Q422.66-33.92 429.70-33.92L429.70-33.92L429.70-33.92Q433.41-33.92 435.42-32L435.42-32L435.42-32Q437.44-30.08 437.44-26.14L437.44-26.14L437.44-26.14Q437.44-22.21 434.85-19.71L434.85-19.71L434.85-19.71Q432.26-17.22 427.84-17.22L427.84-17.22L427.84-17.22Q425.92-17.22 425.15-17.98Z" fill="#eb6c6c"></path></g></g><style>text {
  font-size: 64px;
  font-family: Arial Black;
  dominant-baseline: central;
  text-anchor: middle;
}</style></svg>